<!--?xml version="1.0" encoding="utf-8"?-->
<!-- Generator: Adobe Illustrator 18.1.1, SVG Export Plug-In . SVG Version: 6.00 Build 0)  -->

<svg version="1.1" id="_x32_" xmlns="http://www.w3.org/2000/svg" xmlns:xlink="http://www.w3.org/1999/xlink" x="0px" y="0px" viewBox="0 0 512 512" style="width: 256px; height: 256px; opacity: 1;" xml:space="preserve">
<style type="text/css">
	.st0{fill:#4B4B4B;}
</style>
<g>
	<path class="st0" d="M122.666,152.246c28.833,0,52.198-23.365,52.198-52.182c0-28.824-23.365-52.189-52.198-52.189
		c-28.816,0-52.181,23.365-52.181,52.189C70.486,128.881,93.85,152.246,122.666,152.246z" style="fill: rgb(75, 75, 75);"></path>
	<path class="st0" d="M270.643,155.081l34.689-37.96l62.579-18.443c0.709,1.02,1.441,2.033,2.484,2.819l6.885,5.234l6.277-8.256
		l-4.252-3.248c12.485-4.689,20.109-17.633,17.742-31.067c0.117-0.047,0.202-0.188,0.343-0.203c0.467-0.07,0.904,0.023,1.293,0.327
		l6.885,5.249l6.294-8.279l-6.901-5.241c-2.648-2.017-5.903-2.788-8.972-2.352c-0.904,0.124-1.737,0.561-2.593,0.88
		c-5.997-9.899-17.687-15.491-29.65-12.991l-67.182,14.447c-11.667,2.508-22.524,7.913-31.558,15.725l-58.085,50.211l20.234,87.665
		l-80.188-35.826l-48.302,41.768l-75.905,13.435c-15.218,2.944-25.187,17.664-22.244,32.898
		C3.46,277.1,18.18,287.053,33.413,284.117l70.811-5.919c13.723-1.309,26.777-6.574,37.571-15.156l39.455-28.949l43.786,47.61
		l-47.166,37.64c-17.056,13.544-20.078,42.15-2.009,58.708l106.34,84.946c12.212,12.384,32.166,12.524,44.55,0.312
		c12.383-12.212,12.523-32.158,0.311-44.548l-82.96-69.814l63.35-33.513l132.743,145.532c11.51,13.045,31.418,14.291,44.471,2.772
		c13.037-11.519,14.284-31.418,2.757-44.471L270.643,155.081z" style="fill: rgb(75, 75, 75);"></path>
	<polygon class="st0" points="196.11,186.997 215.783,195.783 210.954,174.832 177.824,139.084 163.477,151.779 	" style="fill: rgb(75, 75, 75);"></polygon>
	<path class="st0" d="M371.206,153.22l8.676,6.596l43.723-39.05l-0.747-0.56c-2.384-1.814-2.851-5.242-1.028-7.64l7.368-9.696
		c1.822-2.399,5.249-2.866,7.632-1.036l0.748,0.552l26.028-52.89l-8.582-6.534c-7.212-5.468-17.462-4.074-22.945,3.115
		l-64.004,84.222C362.608,137.487,364.01,147.744,371.206,153.22z" style="fill: rgb(75, 75, 75);"></path>
	<path class="st0" d="M505.537,81.365L470.07,54.41l-26.029,52.89l8.614,6.557c2.399,1.822,2.866,5.234,1.043,7.64l-7.368,9.689
		c-1.822,2.399-5.249,2.866-7.648,1.043l-8.613-6.542l-43.708,39.05l35.359,26.885c7.196,5.467,17.461,4.066,22.928-3.123
		l64.004-84.214C514.136,97.09,512.734,86.825,505.537,81.365z" style="fill: rgb(75, 75, 75);"></path>
	<polygon class="st0" points="426.612,115.797 441.923,127.448 448.916,118.258 433.605,106.622 	" style="fill: rgb(75, 75, 75);"></polygon>
</g>
</svg>
